<svg id="圖層_1" data-name="圖層 1" xmlns="http://www.w3.org/2000/svg" xmlns:xlink="http://www.w3.org/1999/xlink" viewBox="0 0 100 26"><defs><style>.cls-1,.cls-3{fill:none;}.cls-2{clip-path:url(#clip-path);}.cls-3{stroke:#291903;stroke-linecap:round;stroke-linejoin:round;}.cls-4{clip-path:url(#clip-path-2);}.cls-5{clip-path:url(#clip-path-3);}.cls-6{clip-path:url(#clip-path-4);}</style><clipPath id="clip-path"><rect class="cls-1" width="25" height="26"/></clipPath><clipPath id="clip-path-2"><rect class="cls-1" x="25" width="25" height="26"/></clipPath><clipPath id="clip-path-3"><rect class="cls-1" x="50" width="25" height="26"/></clipPath><clipPath id="clip-path-4"><rect class="cls-1" x="75" width="25" height="26"/></clipPath></defs><title>未命名-1</title><g class="cls-2"><line class="cls-3" x1="15.72" y1="5.17" x2="15.72" y2="20.83"/><polyline class="cls-3" points="15.76 12.5 24.74 16.06 23.58 16.06 23.58 21.15"/><polyline class="cls-3" points="15.74 4.85 1.29 16.71 0.26 16.71"/><polyline class="cls-3" points="23.29 21.15 20.6 21.15 20.6 17.04 18.38 16.14 18.38 21.08 1.39 21.08 1.39 12.76 3.77 12.76 3.77 14.5"/></g><g class="cls-4"><g id="GSQwPH"><path class="cls-3" d="M29.66,4.66l2.95,5.1a2.51,2.51,0,0,0-.87,2.74,8.34,8.34,0,0,0,2.7,4.88,2.84,2.84,0,0,0,1.65.81,7.77,7.77,0,0,0,1.31-.12l2.87,5a3.46,3.46,0,0,1-4.15.33A12.93,12.93,0,0,1,33,20.62a24.87,24.87,0,0,1-5.19-9.48,17.3,17.3,0,0,1-.49-3.07,3,3,0,0,1,1.52-2.89Z"/><path class="cls-3" d="M40.83,15.3c.15.11.38.21.49.38q1.41,2.38,2.78,4.79a.65.65,0,0,1-.25.92q-.69.42-1.4.81a.66.66,0,0,1-1-.28q-1.37-2.35-2.72-4.7a.65.65,0,0,1,.18-.94c.49-.31,1-.58,1.49-.87A2.23,2.23,0,0,1,40.83,15.3Z"/><path class="cls-3" d="M33.22,2.09c.15.12.39.23.5.42.93,1.57,1.83,3.15,2.74,4.73a.66.66,0,0,1-.27,1q-.66.4-1.33.77a.67.67,0,0,1-1-.26Q32.48,6.37,31.13,4a.65.65,0,0,1,.19-.94c.5-.31,1-.59,1.52-.88A2.16,2.16,0,0,1,33.22,2.09Z"/></g><path class="cls-3" d="M38.71,9.31a3.13,3.13,0,0,1,2.1,3.9"/><path class="cls-3" d="M39.36,7.15A5.38,5.38,0,0,1,43,13.85"/><path class="cls-3" d="M40,5a7.63,7.63,0,0,1,5.12,9.5"/><path class="cls-3" d="M40.65,2.84a9.89,9.89,0,0,1,6.63,12.31"/></g><g class="cls-5"><path class="cls-3" d="M71,17.6a9,9,0,0,0,2.91-6.19c0-5.12-5.1-9.28-11.39-9.28S51.11,6.28,51.11,11.4c0,4.59,4.1,8.4,9.48,9.15,0,0,1.51,0,1,2,0,.5-.57,2,1.38.84A45.55,45.55,0,0,0,71,17.6Z"/><polyline class="cls-3" points="55.68 9.57 55.68 13.61 58.33 13.61"/><line class="cls-3" x1="59.81" y1="9.57" x2="59.81" y2="13.6"/><polyline class="cls-3" points="61.86 13.61 61.86 9.57 65.09 13.61 65.09 9.57"/><polyline class="cls-3" points="69.54 13.61 67.12 13.61 67.12 9.57 69.54 9.57"/><line class="cls-3" x1="69.54" y1="11.71" x2="67.1" y2="11.71"/></g><g class="cls-6"><path class="cls-3" d="M98.07,5.79,89.16,14.7a6.4,6.4,0,0,1-.7.62,1.48,1.48,0,0,1-1.92,0,7.1,7.1,0,0,1-.76-.68L76.94,5.8"/><path class="cls-3" d="M76.75,20c2.45-2.45,4.67-4.67,7.11-7.13"/><path class="cls-3" d="M91.17,13c2.45,2.48,4.64,4.65,7.11,7.12"/><rect class="cls-3" x="75.92" y="5.56" width="23.16" height="14.89" rx="1.65" ry="1.65"/></g></svg>