<svg id="圖層_1" data-name="圖層 1" xmlns="http://www.w3.org/2000/svg" viewBox="0 0 147.46 11.47"><defs><style>.cls-1{fill:#f79433;}</style></defs><title>footer_wrod</title><path class="cls-1" d="M887.5,539.14l.55.27a12.92,12.92,0,0,1-1.61,4.31l-.51-.31A14.09,14.09,0,0,0,887.5,539.14ZM889,538h.6l0,6.31c0,.34.06.53.18.55a6.92,6.92,0,0,0,2.34.17q1,0,1.25-.44a7.71,7.71,0,0,0,.42-2.59l.55.22a6.76,6.76,0,0,1-.53,2.76q-.29.6-1.68.61a8,8,0,0,1-2.79-.23.74.74,0,0,1-.33-.71Zm1-2.67a16.6,16.6,0,0,1,2.95,3l-.41.51a19.18,19.18,0,0,0-2.9-3Zm4.83,3.78a23.44,23.44,0,0,1,1.82,4.29l-.64.27a20.86,20.86,0,0,0-1.68-4.24Z" transform="translate(-885.93 -534.36)"/><path class="cls-1" d="M899.3,538.19l7.37,0v.48l-3.12,0a9.18,9.18,0,0,1-1,.74,4.56,4.56,0,0,1,1.2,1.6.66.66,0,0,1,0,.12,10.42,10.42,0,0,0,2.66-1.66l.27.36a11.53,11.53,0,0,1-1.42,1.05,7.9,7.9,0,0,0,1.18,2,8.23,8.23,0,0,0,1.78,1.57l-.36.46a8.18,8.18,0,0,1-1.77-1.6,8.36,8.36,0,0,1-1.24-2.16,9.58,9.58,0,0,1-.95.46,7.2,7.2,0,0,1,.28,2,3.2,3.2,0,0,1-.34,1.77,1,1,0,0,1-.79.44,7.59,7.59,0,0,1-1.37-.13v-.5a5.84,5.84,0,0,0,1.37.18.54.54,0,0,0,.45-.34,3.67,3.67,0,0,0,.18-1.41,8.31,8.31,0,0,0-.09-1.19,14,14,0,0,1-2.52,1.62,17.09,17.09,0,0,1-3,1.17l-.24-.41a15.41,15.41,0,0,0,3.06-1.2,14.11,14.11,0,0,0,2.6-1.7,4.34,4.34,0,0,0-.18-.56,4.64,4.64,0,0,0-.23-.49,16.66,16.66,0,0,1-4.81,2.44l-.19-.46a16,16,0,0,0,4.73-2.4,6.11,6.11,0,0,0-.7-.76l-.62.37a14,14,0,0,1-3,1.23l-.33-.46a13.17,13.17,0,0,0,2.76-1,9.19,9.19,0,0,0,1.81-1.1l-3.52,0Zm3.14-3.08a4.36,4.36,0,0,1,1,1.5l4.33,0v2h-.5V537l-8.65.06v1.59h-.5v-2l4.75,0a4.58,4.58,0,0,0-.86-1.19Z" transform="translate(-885.93 -534.36)"/><path class="cls-1" d="M916.29,540.47a1.56,1.56,0,0,1-1.55,1.57,1.53,1.53,0,0,1-1.13-.45,1.49,1.49,0,0,1-.45-1.1,1.52,1.52,0,0,1,1.56-1.58,1.49,1.49,0,0,1,1.1.44A1.53,1.53,0,0,1,916.29,540.47Zm-.48,0a1.06,1.06,0,0,0-1.08-1.08,1.08,1.08,0,0,0-1.08,1.1,1.06,1.06,0,0,0,1.1,1.07,1,1,0,0,0,1.07-1.09Z" transform="translate(-885.93 -534.36)"/><path class="cls-1" d="M923.85,535.06l.55.18a27.64,27.64,0,0,1-1.18,2.89l0,7.69h-.55l0-6.68a19.56,19.56,0,0,1-1.22,1.87l-.41-.31a17.36,17.36,0,0,0,1.58-2.61A17.07,17.07,0,0,0,923.85,535.06Zm.38,2.7,7.23,0v.5l-3.34,0,0,2.83,2.83,0v.5l-2.83,0,0,3.26,3.62,0v.5l-7.87.05v-.5l3.7,0,0-3.26-2.83,0v-.5l2.83,0,0-2.83-3.34,0Zm2.77-2.54a8.76,8.76,0,0,1,1.76,1.86l-.5.38a8.36,8.36,0,0,0-1.71-1.92Z" transform="translate(-885.93 -534.36)"/><path class="cls-1" d="M932.87,537.8l3,0a12.22,12.22,0,0,1-1.8,2.85H936a10.32,10.32,0,0,1-1,2.94,7.85,7.85,0,0,0,2.17.91,14.88,14.88,0,0,0,3.67.29q1.76,0,2.83-.11l-.09.55q-1.09.1-2.74.11a15.23,15.23,0,0,1-3.85-.31,9.19,9.19,0,0,1-2.25-1,6.28,6.28,0,0,1-1.58,1.75l-.27-.41a6.54,6.54,0,0,0,1.57-1.85,9.13,9.13,0,0,0,1-2.43H933.7l-.35.37-.41-.27a14.17,14.17,0,0,0,2.19-2.94h-2.26Zm1-2.66A8.81,8.81,0,0,1,935,537l-.45.33a8.18,8.18,0,0,0-1.11-1.87Zm3.93-.12.5.14q-.33,1-.67,1.71V537l5.4,0v.5l-2.66,0V539h2.25v.46h-2.25v1.51h2.25v.46H940.4v1.46l2.93,0v.5l-5.67,0V544h-.5l0-6.18a15.73,15.73,0,0,1-1,1.61l-.36-.27a14.7,14.7,0,0,0,1.17-1.93A13.88,13.88,0,0,0,937.79,535Zm2.09,4v-1.51l-2.24,0V539Zm0,2v-1.51l-2.24,0V541Zm-2.22,1.94,2.24,0v-1.46l-2.24,0Zm2-7.88a6.45,6.45,0,0,1,1,1.46l-.45.33a6.2,6.2,0,0,0-1-1.51Z" transform="translate(-885.93 -534.36)"/><path class="cls-1" d="M947.27,535l.55.18q-.53,1.47-1,2.55l.05,8h-.55l0-6.94a17.69,17.69,0,0,1-1.4,2.14l-.41-.31A18.1,18.1,0,0,0,946,538,17.53,17.53,0,0,0,947.27,535Zm2.19-.14.6.17a12.35,12.35,0,0,1-.55,1.88l5.64,0a8.77,8.77,0,0,1-.77,2.44l-.51-.28a6.34,6.34,0,0,0,.59-1.65l-5.15,0a3.71,3.71,0,0,1-.15.35,11,11,0,0,1-1.4,2.32l-.41-.45a13,13,0,0,0,1.31-2.22A12.21,12.21,0,0,0,949.46,534.81Zm.08,4.71.51.23a12.12,12.12,0,0,1-1.94,4.36l-.46-.33A12.62,12.62,0,0,0,949.53,539.52Zm1.74-1.57h.55l0,6.59q0,1-.87,1a3.15,3.15,0,0,1-1.32-.27l-.05-.59A3.25,3.25,0,0,0,951,545q.33,0,.32-.6Zm2.11,1.5a25.06,25.06,0,0,1,1.87,4.43l-.55.24a21,21,0,0,0-1.73-4.38Z" transform="translate(-885.93 -534.36)"/><path class="cls-1" d="M966,537.22l0,7.13q0,1-1,1a7.9,7.9,0,0,1-1.38-.13l0-.58a6.92,6.92,0,0,0,1.42.17q.5,0,.5-.55l0-6.5-3.35,0a9.27,9.27,0,0,0,.7,2,11.66,11.66,0,0,0,2.26,3.07l-.5.37a12.55,12.55,0,0,1-2.3-3.24,9.21,9.21,0,0,1-.45-1.14,10.84,10.84,0,0,1-1.27,2.21,10.44,10.44,0,0,1-2,2.21l-.41-.41a12.22,12.22,0,0,0,2.14-2.38,10.55,10.55,0,0,0,1.3-2.49.84.84,0,0,0,0-.14l-3.85,0,0,7.69h-.53l-.05-8.23,4.28,0a13,13,0,0,1-.21-1.51l-2.71,0v-.5l3.24,0a16.81,16.81,0,0,0,.26,2Z" transform="translate(-885.93 -534.36)"/><path class="cls-1" d="M969.47,538.61l.55.27a12.94,12.94,0,0,1-1.61,4.31l-.51-.31A14.07,14.07,0,0,0,969.47,538.61Zm1.55-1.16h.6l0,6.31c0,.34.06.53.18.55a7,7,0,0,0,2.34.17q1,0,1.25-.44a7.71,7.71,0,0,0,.42-2.59l.55.22a6.77,6.77,0,0,1-.53,2.76q-.29.6-1.68.61a8,8,0,0,1-2.79-.23.73.73,0,0,1-.33-.71Zm1-2.67a16.54,16.54,0,0,1,2.95,3l-.41.51a19.1,19.1,0,0,0-2.9-3Zm4.83,3.78a23.49,23.49,0,0,1,1.82,4.29l-.64.27a20.86,20.86,0,0,0-1.68-4.24Z" transform="translate(-885.93 -534.36)"/><path class="cls-1" d="M981.57,534.68l.47.18a6.7,6.7,0,0,1-1.15,2q.68,0,1.26-.1a9.19,9.19,0,0,0,.57-1l.5.18a11.47,11.47,0,0,1-2,2.72q.71-.09,1.42-.24a6.58,6.58,0,0,0,.35-.79l.46.14a6.34,6.34,0,0,1-1.27,2.1,8,8,0,0,1-2,1.54l-.41-.36a7.5,7.5,0,0,0,2-1.47,6,6,0,0,0,.56-.68,16.2,16.2,0,0,1-2.38.35l-.14-.46.7-.05a12.33,12.33,0,0,0,1.17-1.34l.14-.19a9.89,9.89,0,0,1-1.88.16l-.1-.5h.53A5.92,5.92,0,0,0,981.57,534.68Zm3.06,5.47.46.19a5.34,5.34,0,0,1-.43.78l4.51,0,0,3.21q0,.91-1,.92a7.69,7.69,0,0,1-1.1-.09l-.05-.55a5.71,5.71,0,0,0,1.15.13q.46,0,.45-.51l0-2.66-7.08,0,0,3.85h-.5l0-4.31,3,0A5.77,5.77,0,0,0,984.62,540.16Zm.06-5.53a5.39,5.39,0,0,1,.8,1h1.12l0,2.69-2.6,0v1.44c.64-.16,1.22-.32,1.75-.48-.15-.17-.31-.34-.48-.51l.36-.27a7,7,0,0,1,1.2,1.55l-.36.27a6.51,6.51,0,0,0-.46-.71,27.66,27.66,0,0,1-3,.87l-.19-.45.68-.16,0-4.24h1.39a6,6,0,0,0-.61-.73Zm2.3,7.62v2.15h-.46v-.33l-2.85,0v.5h-.46l0-2.33Zm-3.29,1.44,2.85,0v-1l-2.85,0Zm.33-7h2.14V536H984Zm0,1.19h2.14v-.77H984Zm6.15-2.7a11.37,11.37,0,0,1-1.18,2.44q1.11.88,1.11,1.63,0,1.1-.91,1.11a2,2,0,0,1-.91-.18l0-.5a2.35,2.35,0,0,0,1,.23q.41,0,.41-.65t-1.15-1.6a9.54,9.54,0,0,0,1-2.06h-1.71l0,5.3h-.46l0-5.73Z" transform="translate(-885.93 -534.36)"/><path class="cls-1" d="M994.58,537.26l.36.28a9.21,9.21,0,0,1-1.14,1.65l0,6.18h-.5l0-5.63a14.1,14.1,0,0,1-1.63,1.47l-.33-.41a14.19,14.19,0,0,0,1.87-1.7A10.52,10.52,0,0,0,994.58,537.26Zm-.33-2.52.36.28a8.36,8.36,0,0,1-1.15,1.59,12.18,12.18,0,0,1-1.58,1.45l-.32-.42a10.86,10.86,0,0,0,1.55-1.38A8.88,8.88,0,0,0,994.25,534.74Zm1.06,2.05,6.18,0v.5l-3,0,0,3.12,2.61,0v.5l-2.61,0,0,3.48,3.52,0v.5l-7.6,0v-.5l3.52,0,0-3.48-2.61,0v-.5l2.61,0,0-3.12-2.61,0Zm2.23-2.25a8,8,0,0,1,1.24,1.82l-.45.32a7.78,7.78,0,0,0-1.2-1.87Z" transform="translate(-885.93 -534.36)"/><path class="cls-1" d="M1005.41,534.67l.55.18a12.33,12.33,0,0,1-.34,1.22,6.34,6.34,0,0,1-.26.7h1.94l.05,8.1h-.55v-.74l-2.66,0v1.05h-.55l-.05-8.42h1.21q.15-.34.3-.77Q1005.25,535.38,1005.41,534.67Zm-1.3,5.36,2.66,0,0-2.74-2.66,0Zm0,3.62,2.66,0,0-3.12-2.66,0Zm5.29-9.18.55.13a18.12,18.12,0,0,1-.47,2l3.74,0q0,6.68-.45,7.67a1.27,1.27,0,0,1-1.28.8,4.42,4.42,0,0,1-1.37-.21l-.05-.6a6.23,6.23,0,0,0,1.42.21q.66,0,.81-.81a36.43,36.43,0,0,0,.29-6.56l-3.26,0q-.08.22-.15.45a15.51,15.51,0,0,1-1.11,2.54l-.46-.41a13.79,13.79,0,0,0,1.1-2.51A16,16,0,0,0,1009.43,534.47Zm.17,4.52a12.46,12.46,0,0,1,1.94,2.55l-.58.24a10.08,10.08,0,0,0-1.81-2.46Z" transform="translate(-885.93 -534.36)"/><path class="cls-1" d="M1016.4,537.43l7.37,0v.48l-3.11,0a9.15,9.15,0,0,1-1,.74,4.56,4.56,0,0,1,1.2,1.6.65.65,0,0,1,0,.12,10.39,10.39,0,0,0,2.66-1.66l.27.36a11.47,11.47,0,0,1-1.42,1.05,7.86,7.86,0,0,0,1.18,2,8.23,8.23,0,0,0,1.78,1.57l-.36.46a8.19,8.19,0,0,1-1.77-1.6,8.39,8.39,0,0,1-1.24-2.16,9.75,9.75,0,0,1-.95.46,7.19,7.19,0,0,1,.28,2,3.2,3.2,0,0,1-.34,1.77,1,1,0,0,1-.79.44,7.59,7.59,0,0,1-1.37-.13v-.5a5.83,5.83,0,0,0,1.37.18.54.54,0,0,0,.45-.34,3.67,3.67,0,0,0,.18-1.41,8.31,8.31,0,0,0-.09-1.19,14,14,0,0,1-2.52,1.62,17.17,17.17,0,0,1-3,1.17L1015,544a15.47,15.47,0,0,0,3.06-1.2,14.16,14.16,0,0,0,2.6-1.7,4.31,4.31,0,0,0-.18-.56,4.52,4.52,0,0,0-.23-.49,16.66,16.66,0,0,1-4.81,2.44l-.19-.46a16,16,0,0,0,4.73-2.4,6.23,6.23,0,0,0-.7-.76l-.62.37a14,14,0,0,1-3,1.23l-.33-.46a13.19,13.19,0,0,0,2.76-1,9.24,9.24,0,0,0,1.81-1.1l-3.52,0Zm3.14-3.08a4.36,4.36,0,0,1,1,1.5l4.33,0v2h-.5v-1.59l-8.65.06v1.59h-.5v-2l4.75,0a4.59,4.59,0,0,0-.86-1.19Z" transform="translate(-885.93 -534.36)"/><path class="cls-1" d="M1033.4,539.71a1.56,1.56,0,0,1-1.55,1.57,1.53,1.53,0,0,1-1.13-.45,1.49,1.49,0,0,1-.45-1.1,1.52,1.52,0,0,1,1.56-1.58,1.5,1.5,0,0,1,1.1.44A1.53,1.53,0,0,1,1033.4,539.71Zm-.48,0a1.06,1.06,0,0,0-1.08-1.08,1.08,1.08,0,0,0-1.08,1.1,1.06,1.06,0,0,0,1.1,1.07,1,1,0,0,0,1.07-1.09Z" transform="translate(-885.93 -534.36)"/></svg>