<svg id="圖層_1" data-name="圖層 1" xmlns="http://www.w3.org/2000/svg" viewBox="0 0 96.11 57.66"><defs><style>.cls-1{fill:#f79433;}.cls-2{fill:#fff;}</style></defs><title>footerlogo</title><path class="cls-1" d="M952.34,563.86a4.23,4.23,0,0,1-.38.46,3.27,3.27,0,0,1-.4.34,4.41,4.41,0,0,1-.56.32q-.14.08-.14.18a.24.24,0,0,0,.06.16.16.16,0,0,0,.12.07.36.36,0,0,0,.16,0,5.64,5.64,0,0,0,.6-.36,2.63,2.63,0,0,0,.43-.37,3.93,3.93,0,0,0,.41-.49.31.31,0,0,0,0-.16.17.17,0,0,0-.06-.12.21.21,0,0,0-.14-.06A.15.15,0,0,0,952.34,563.86Z" transform="translate(-911.98 -511.62)"/><path class="cls-1" d="M953.1,562.68a.2.2,0,0,0-.22.22v.29H951a.35.35,0,0,0-.4.39v.71a.18.18,0,0,0,.2.2q.22,0,.22-.2v-.59a.12.12,0,0,1,.14-.14h2.21v1.24a.35.35,0,0,0,.4.39h1.54a.18.18,0,0,0,.2-.2q0-.17-.2-.17h-1.42q-.13,0-.13-.16v-1.11H955q.15,0,.15.2a3.32,3.32,0,0,1-.07.46.2.2,0,0,0,.22.22.22.22,0,0,0,.24-.18,3.27,3.27,0,0,0,0-.53.6.6,0,0,0-.1-.38.42.42,0,0,0-.37-.17h-1.84v-.29A.2.2,0,0,0,953.1,562.68Z" transform="translate(-911.98 -511.62)"/><path class="cls-1" d="M955.46,567.37h-2.15v-1.24h1.74a.18.18,0,0,0,.2-.2q0-.19-.2-.19h-3.91a.17.17,0,0,0-.2.19.18.18,0,0,0,.2.2h1.75v1.24h-2.11a.17.17,0,0,0-.2.19.18.18,0,0,0,.2.2h4.67a.18.18,0,0,0,.2-.2A.17.17,0,0,0,955.46,567.37Z" transform="translate(-911.98 -511.62)"/><path class="cls-1" d="M961.46,562.88h-1.15q-.43,0-.43.4v1.07a.37.37,0,0,0,.43.41h1.28v2.51c0,.18,0,.27-.11.27l-.57-.06h-.12q-.15,0-.16.2a.2.2,0,0,0,.16.2,5.29,5.29,0,0,0,.72.07q.47,0,.47-.51v-4A.46.46,0,0,0,961.46,562.88Zm.13,1.51h-1.17c-.09,0-.13-.05-.13-.16V564h1.31Zm0-.71h-1.31v-.29q0-.14.13-.14h1a.16.16,0,0,1,.18.18Z" transform="translate(-911.98 -511.62)"/><path class="cls-1" d="M961,566.84V565.6q0-.43-.44-.43h-2a.37.37,0,0,0-.41.43v1.23a.37.37,0,0,0,.41.43h2Q961,567.26,961,566.84Zm-.38-.06q0,.13-.13.13h-1.9q-.12,0-.12-.13v-.4h2.15Zm0-.73h-2.15v-.38q0-.13.12-.13h1.9a.11.11,0,0,1,.13.13Z" transform="translate(-911.98 -511.62)"/><path class="cls-1" d="M959.24,564.37v-1.09q0-.4-.42-.4H957.7a.46.46,0,0,0-.53.51v4.4q0,.16.2.16t.19-.16v-3h1.27A.37.37,0,0,0,959.24,564.37Zm-1.69-.93a.16.16,0,0,1,.18-.18h1a.1.1,0,0,1,.12.12v.31h-1.29Zm1.17,1h-1.17V564h1.29v.27Q958.85,564.41,958.73,564.41Z" transform="translate(-911.98 -511.62)"/><path class="cls-1" d="M964.62,564.33a.58.58,0,1,0,.58.58A.58.58,0,0,0,964.62,564.33Z" transform="translate(-911.98 -511.62)"/><path class="cls-1" d="M972.09,567.26a5.93,5.93,0,0,1-1-.71,6.07,6.07,0,0,1-.64-.69h0a7.22,7.22,0,0,0,1.29-.79.47.47,0,0,0,.09-.24.18.18,0,0,0-.2-.2.17.17,0,0,0-.15.11,6.51,6.51,0,0,1-1.26.84l0,0a2,2,0,0,0-.06-.19,2.48,2.48,0,0,0-.63-.91l.12-.13h1.6q.17,0,.17-.2a.15.15,0,0,0-.17-.18H968a.16.16,0,0,0-.18.18q0,.2.18.2h1.17a2.44,2.44,0,0,1-.6.39,4.89,4.89,0,0,1-1.17.45q-.25,0-.25.24a.17.17,0,0,0,.18.18,2.17,2.17,0,0,0,.65-.19,4.49,4.49,0,0,0,1-.49,2.27,2.27,0,0,0,.29-.22,3.22,3.22,0,0,1,.27.32,4.81,4.81,0,0,1-.81.59,6.09,6.09,0,0,1-1.4.57q-.18,0-.18.18a.2.2,0,0,0,.22.23,1.67,1.67,0,0,0,.56-.16,4.25,4.25,0,0,0,.95-.45,5.26,5.26,0,0,0,.85-.66l.06.13a2,2,0,0,1,.09.3,6.14,6.14,0,0,1-1,.79,7,7,0,0,1-1.6.7c-.12,0-.18.08-.18.18a.2.2,0,0,0,.23.22,1.87,1.87,0,0,0,.63-.18,4.85,4.85,0,0,0,1.08-.56,5.49,5.49,0,0,0,.92-.75q0,.2,0,.43a1.6,1.6,0,0,1-.08.54.77.77,0,0,1-.19.32.31.31,0,0,1-.24.11,2,2,0,0,1-.48-.1l-.14,0q-.18,0-.19.24a.21.21,0,0,0,.11.17,2.3,2.3,0,0,0,.71.12.74.74,0,0,0,.55-.22,1.22,1.22,0,0,0,.29-.54,2.19,2.19,0,0,0,.07-.59q0-.17,0-.33a3.72,3.72,0,0,0,.39.47,4.92,4.92,0,0,0,1.1.87.31.31,0,0,0,.18.07.2.2,0,0,0,.22-.22Q972.22,567.34,972.09,567.26Z" transform="translate(-911.98 -511.62)"/><path class="cls-1" d="M969.66,562.71a.2.2,0,0,0-.22.22v.24h-1.92a.35.35,0,0,0-.4.39v.66a.18.18,0,0,0,.2.2q.23,0,.23-.2v-.49a.16.16,0,0,1,.18-.18h3.89q.16,0,.16.2a3.27,3.27,0,0,1-.07.44.2.2,0,0,0,.22.23.23.23,0,0,0,.24-.18,3.33,3.33,0,0,0,0-.51.69.69,0,0,0-.1-.4.42.42,0,0,0-.36-.17h-1.86v-.24A.2.2,0,0,0,969.66,562.71Z" transform="translate(-911.98 -511.62)"/><path class="cls-1" d="M975.12,566.64a.35.35,0,0,0-.14,0,4.9,4.9,0,0,1-1.37.8.19.19,0,0,0-.11.18.22.22,0,0,0,.24.24l.13,0a4.61,4.61,0,0,0,1.34-.85.22.22,0,0,0,.09-.18A.18.18,0,0,0,975.12,566.64Z" transform="translate(-911.98 -511.62)"/><path class="cls-1" d="M978.54,566.13h-.37v-2.88q0-.38-.4-.38h-3.3a.33.33,0,0,0-.38.38v2.88h-.39a.18.18,0,0,0-.2.2q0,.22.2.22h4.84q.2,0,.2-.22A.18.18,0,0,0,978.54,566.13Zm-.79,0h-3.24v-.49h3.24Zm0-.84h-3.24v-.46h3.24Zm0-.82h-3.24v-.42h3.24Zm0-.77h-3.24v-.27c0-.11,0-.16.14-.16h2.94a.14.14,0,0,1,.16.16Z" transform="translate(-911.98 -511.62)"/><path class="cls-1" d="M978.5,567.46a5.76,5.76,0,0,1-1.24-.73.2.2,0,0,0-.14-.07.19.19,0,0,0-.22.22.32.32,0,0,0,.12.2,4.56,4.56,0,0,0,.66.47,3.29,3.29,0,0,0,.74.35q.24,0,.24-.27T978.5,567.46Z" transform="translate(-911.98 -511.62)"/><path class="cls-1" d="M981.16,564.33a.58.58,0,1,0,.58.58A.58.58,0,0,0,981.16,564.33Z" transform="translate(-911.98 -511.62)"/><path class="cls-1" d="M983.89,565.16a.16.16,0,0,0-.18.18q0,.2.18.2h4.61q.17,0,.17-.2t-.17-.18h-2.08v-.53h1.81q.17,0,.17-.18a.15.15,0,0,0-.17-.18h-1.81v-.51h2q.17,0,.17-.2a.15.15,0,0,0-.17-.17h-1.2l0,0a3.52,3.52,0,0,0,.2-.31.2.2,0,0,0,0-.13.19.19,0,0,0-.07-.14.18.18,0,0,0-.13-.06.21.21,0,0,0-.18.08,3.66,3.66,0,0,1-.27.45l-.11.15h-1.17a.26.26,0,0,0,0-.12.23.23,0,0,0,0-.11,1.34,1.34,0,0,0-.24-.26l-.18-.16a.31.31,0,0,0-.14,0,.15.15,0,0,0-.18.17.22.22,0,0,0,.07.15l.16.15a1.68,1.68,0,0,1,.19.21H984a.15.15,0,0,0-.18.17q0,.2.18.2h2v.51h-1.81a.15.15,0,0,0-.17.18q0,.18.17.18H986v.53Z" transform="translate(-911.98 -511.62)"/><path class="cls-1" d="M988.76,566.35a.18.18,0,0,0-.2-.2h-2.15v-.3a.22.22,0,1,0-.44,0v.3h-2.13a.18.18,0,0,0-.2.2.18.18,0,0,0,.2.2h2l-.06.08a1.76,1.76,0,0,1-.64.44,6.85,6.85,0,0,1-1.38.41.19.19,0,0,0-.14.2q0,.24.22.24l.24,0a6.37,6.37,0,0,0,1.38-.49,2,2,0,0,0,.74-.59h0l.11.14a2.45,2.45,0,0,0,.42.34,4.43,4.43,0,0,0,.55.27,5.81,5.81,0,0,0,.74.25,2.41,2.41,0,0,0,.48.1.2.2,0,0,0,.22-.22.18.18,0,0,0-.07-.14.63.63,0,0,0-.29-.09,4.56,4.56,0,0,1-.61-.16,4,4,0,0,1-.59-.24,1.85,1.85,0,0,1-.49-.31,1,1,0,0,1-.18-.19h2.05A.18.18,0,0,0,988.76,566.35Z" transform="translate(-911.98 -511.62)"/><path class="cls-1" d="M991.78,563.66c0,.13.05.2.16.2l.11,0a4.31,4.31,0,0,0,.59-.29l.3.19a.38.38,0,0,0,.18,0q.16,0,.15-.18a.23.23,0,0,0,0-.1l-.26-.17.22-.18a.19.19,0,0,0,.09-.15.16.16,0,0,0-.18-.18l-.12,0a2.47,2.47,0,0,1-.37.3l-.41-.18-.11,0q-.15,0-.15.15a.2.2,0,0,0,0,.12l.3.14a3.5,3.5,0,0,1-.41.2A.13.13,0,0,0,991.78,563.66Z" transform="translate(-911.98 -511.62)"/><path class="cls-1" d="M993.4,564a.15.15,0,0,0-.18-.17l-.11,0a4,4,0,0,1-.39.28l-.44-.19-.11,0q-.16,0-.16.15a.15.15,0,0,0,0,.11l.32.15-.41.19a.12.12,0,0,0-.08.11q0,.2.15.2l.12,0q.32-.13.59-.27l.32.19a.3.3,0,0,0,.18,0q.15,0,.15-.18a.3.3,0,0,0,0-.12l-.27-.15.22-.17A.2.2,0,0,0,993.4,564Z" transform="translate(-911.98 -511.62)"/><path class="cls-1" d="M994.82,564.91h-.15q.22-1.69.22-1.76,0-.27-.3-.27h-.91q-.15,0-.15.15t.15.18h.71c.08,0,.12,0,.12.06s0,.11,0,.31h-.79q-.15,0-.15.15t.15.18h.74l0,.35h-.66q-.15,0-.15.16c0,.12,0,.18.15.18h.62q0,.14,0,.3H991l0-.28h.62q.15,0,.15-.18a.14.14,0,0,0-.15-.15h-.65l0-.35h.61q.16,0,.16-.18t-.16-.15h-.64l0-.27q0-.13.12-.13a5.29,5.29,0,0,0,.64,0c.13,0,.19-.08.19-.2s-.06-.2-.17-.2a4.47,4.47,0,0,1-.76.09.38.38,0,0,0-.28.09.45.45,0,0,0-.09.3l.13,1.66h-.22a.26.26,0,0,0-.29.29v.66a.18.18,0,0,0,.2.2.18.18,0,0,0,.2-.2v-.46q0-.13.13-.13h4q.17,0,.17.19a2.35,2.35,0,0,1-.06.36.18.18,0,0,0,.2.2.23.23,0,0,0,.24-.16,2.27,2.27,0,0,0,0-.42.58.58,0,0,0-.09-.37A.41.41,0,0,0,994.82,564.91Z" transform="translate(-911.98 -511.62)"/><path class="cls-1" d="M995,566.58h-1.87l-.12-.14a4.72,4.72,0,0,0,.58-.22,2.44,2.44,0,0,0,.46-.28q.1-.08.1-.14,0-.24-.35-.24H991.3a.15.15,0,0,0-.17.18.15.15,0,0,0,.17.17h2.1q.09,0,.09,0s0,0-.11.06l-.29.11-.34.09-.08,0a.31.31,0,0,0-.13,0,.21.21,0,0,0-.22.22s0,0,0,0a1,1,0,0,1,.27.17h-2.35a.16.16,0,0,0-.18.18q0,.2.18.2h2.61a1,1,0,0,1,0,.24.25.25,0,0,1-.08.18.42.42,0,0,1-.2.12.67.67,0,0,1-.22,0,4.5,4.5,0,0,1-.82-.18q-.17,0-.17.22a.23.23,0,0,0,.17.22,2.72,2.72,0,0,0,.85.16,1.11,1.11,0,0,0,.44-.08.77.77,0,0,0,.47-.67,1.1,1.1,0,0,0,0-.24H995q.18,0,.18-.2A.16.16,0,0,0,995,566.58Z" transform="translate(-911.98 -511.62)"/><path class="cls-1" d="M925.45,560h-.29a.35.35,0,0,0-.35.35v8.62a.35.35,0,0,0,.35.35h.29a.35.35,0,0,0,.35-.35V560.3A.35.35,0,0,0,925.45,560Z" transform="translate(-911.98 -511.62)"/><path class="cls-1" d="M932.1,566.08l-.36,0a.29.29,0,0,0-.29.26,14.27,14.27,0,0,1,0,1.47,1,1,0,0,1-.14.38.68.68,0,0,1-.59.24h-1.94a.61.61,0,0,1-.49-.17.83.83,0,0,1-.07-.42v-5.15h0V560.3a.35.35,0,0,0-.35-.35h-.32a.35.35,0,0,0-.35.35v4h0V568a1.29,1.29,0,0,0,.44,1.17,1.21,1.21,0,0,0,.63.17h2.82a2.56,2.56,0,0,0,.65-.06,1,1,0,0,0,.42-.32,1.13,1.13,0,0,0,.22-.55,12.81,12.81,0,0,0,.06-1.92C932.42,566.05,932.1,566.08,932.1,566.08Z" transform="translate(-911.98 -511.62)"/><path class="cls-1" d="M945.36,568.34a8.35,8.35,0,0,1-2.71-2.54l-.1-.17a13.63,13.63,0,0,0,1.82-1.6c.23-.25,0-.36,0-.36l-.32-.32c-.16-.13-.31.09-.31.09a13.6,13.6,0,0,1-1.63,1.43c-.09-.18-.18-.37-.27-.57a4.23,4.23,0,0,0-.74-1.19l.09-.07h2.46a.35.35,0,0,0,.35-.35v-.19a.35.35,0,0,0-.35-.35h-5.43a.35.35,0,0,0-.35.35v.19a.35.35,0,0,0,.35.35h1.67a10.69,10.69,0,0,1-3.05,1.32s-.21,0-.14.22l.19.4s0,.2.39.11a9.9,9.9,0,0,0,3.14-1.51,3,3,0,0,1,.34.41,11.15,11.15,0,0,1-3.92,2.06s-.24,0-.16.26l.19.37s0,.24.4.13a12.51,12.51,0,0,0,3.82-2.1q.15.38.24.67a12.74,12.74,0,0,1-4.73,2.47.21.21,0,0,0-.15.29l.17.34a.28.28,0,0,0,.36.16,12.67,12.67,0,0,0,4.43-2.31,3.55,3.55,0,0,1-.24,1.31.88.88,0,0,1-.47.63,2.55,2.55,0,0,1-1.26-.17.26.26,0,0,0-.3.15l0,.41s-.09.23.2.31a7.84,7.84,0,0,0,1.12.28,1.55,1.55,0,0,0,.63-.11,1.45,1.45,0,0,0,.83-.9,4.57,4.57,0,0,0,.3-1.62,10.46,10.46,0,0,0,2.42,2.31.27.27,0,0,0,.41,0l.35-.32C945.68,568.5,945.36,568.34,945.36,568.34Z" transform="translate(-911.98 -511.62)"/><path class="cls-1" d="M945.13,560.63h-3.69v-.34a.35.35,0,0,0-.35-.35h-.19a.35.35,0,0,0-.35.35v.34H937a.62.62,0,0,0-.62.62v1.45a.35.35,0,0,0,.35.35h.19a.35.35,0,0,0,.35-.35v-1.17h7.54v1.17a.35.35,0,0,0,.35.35h.19a.35.35,0,0,0,.35-.35v-1.45A.63.63,0,0,0,945.13,560.63Z" transform="translate(-911.98 -511.62)"/><path class="cls-1" d="M932.12,560.68l-1.88-.69a.5.5,0,0,0-.67.46v3.86a.35.35,0,0,0,.35.35h.29a.35.35,0,0,0,.35-.35v-3.14l.89.32v2.82a.35.35,0,0,0,.35.35h.29a.35.35,0,0,0,.35-.35V562.4h0v-1.25A.5.5,0,0,0,932.12,560.68Z" transform="translate(-911.98 -511.62)"/><path class="cls-2" d="M935.62,532.7a.48.48,0,0,0,.48.48H938v7.88a.85.85,0,0,0,.85.85H973a.85.85,0,0,0,.85-.85v-6.84l2.3.86v6a.85.85,0,0,0,.85.85h5.26a.85.85,0,0,0,.85-.85v-9.84H984a.48.48,0,0,0,.48-.48v-.41a.82.82,0,0,0,0-.18V530c0-.25-.06-.35-.38-.47l-.12,0,0,0-17.19-6.19V512.47a.85.85,0,0,0-1.35-.68l-21.73,15.94v-3.64a.85.85,0,0,0-.85-.85h-4a.85.85,0,0,0-.85.85v7.39H936.1a.48.48,0,0,0-.48.48v.36h0Zm31.1-7.62,14.67,5.28s0,0,0,0v9.81h-3.57V534.5a.85.85,0,0,0-.55-.79l-4-1.5a.85.85,0,0,0-1.15.79v7.22h-5.41Zm-27.06-.14H942v4l-2.29,1.68Zm0,7.82,3.44-2.52a.84.84,0,0,0,.37-.27L965,514.14V540.2H939.66Z" transform="translate(-911.98 -511.62)"/><g id="_群組_" data-name="&lt;群組&gt;"><path class="cls-2" d="M1003.25,555h-3.88a4.13,4.13,0,0,1-1-.08.26.26,0,0,1-.2-.29q0-.25.36-.41a.9.9,0,0,0,.25-.12c.15-.1.22-1.2.22-3.27a12.47,12.47,0,0,0-.17-3.08,1.9,1.9,0,0,0-.36-.22q-.3-.18-.3-.36a.3.3,0,0,1,.25-.3,6.24,6.24,0,0,1,1.25-.08h3.52a4.36,4.36,0,0,0,.86-.12.24.24,0,0,1,.24.14,2.46,2.46,0,0,1,.34,1.27c0,.36-.12.53-.37.53s-.27-.14-.42-.39-.14-.2-.17-.27a1.2,1.2,0,0,0-1-.37h-.78c-.68,0-1.08.1-1.22.27a3.43,3.43,0,0,0-.19,1.59v.46a1.26,1.26,0,0,0,0,.34c0,.05.1.07.22.07h1a1.21,1.21,0,0,0,.64-.14.63.63,0,0,0,.22-.47,1.07,1.07,0,0,0,0-.15c.05-.37.17-.56.37-.56a.34.34,0,0,1,.34.3,6.3,6.3,0,0,1,.1,1.42,6,6,0,0,1-.1,1.41.34.34,0,0,1-.34.3c-.2,0-.32-.19-.37-.58,0,0,0-.07,0-.14a.61.61,0,0,0-.24-.47,1.11,1.11,0,0,0-.63-.14h-1a.25.25,0,0,0-.22.08,1.45,1.45,0,0,0-.05.47v.54a5.78,5.78,0,0,0,.12,1.61c.1.24.53.36,1.29.36h.75a2.23,2.23,0,0,0,.91-.15,1.29,1.29,0,0,0,.54-.58,2.54,2.54,0,0,0,.19-.37c.1-.29.22-.42.36-.42s.32.17.32.53a4.55,4.55,0,0,1-.34,1.56c-.1.29-.24.42-.39.42l-.15,0A2.76,2.76,0,0,0,1003.25,555Z" transform="translate(-911.98 -511.62)"/><path class="cls-2" d="M987.29,548.94l-.05,2.27c0,.64,0,1.15,0,1.54,0,.85.05,1.3.15,1.39a.85.85,0,0,0,.25.14q.36.13.36.36c0,.3-.42.46-1.29.46s-1.19-.15-1.19-.46q0-.15.3-.36c.22-.14.34-.22.34-.25a10.14,10.14,0,0,0,.17-1.74c.05-1.07.08-2.15.08-3.29v-.19c0-.64-.08-1-.22-1.08a1.33,1.33,0,0,0-.27-.14c-.25-.08-.37-.2-.37-.37a.3.3,0,0,1,.25-.3,4.75,4.75,0,0,1,1.08-.08,3.69,3.69,0,0,1,1.07.07,4.78,4.78,0,0,1,.49,1.1l.49,1.22a23.46,23.46,0,0,0,1.52,3.46c.19,0,.81-1.51,1.85-4.49a2.81,2.81,0,0,0,.12-.36,2.63,2.63,0,0,1,.37-.81,2,2,0,0,1,1.12-.19,4.26,4.26,0,0,1,1,.08c.17.05.27.15.27.3s-.12.29-.34.37a.37.37,0,0,0-.15.05.49.49,0,0,0-.24.34,7.13,7.13,0,0,0-.05,1.1,35.32,35.32,0,0,0,.17,4.95c0,.08.12.17.29.22l.12.05c.19.08.29.19.29.34s-.1.3-.32.36a5.06,5.06,0,0,1-1.25.1,4.37,4.37,0,0,1-1.17-.1c-.2-.07-.32-.19-.32-.36s.12-.27.36-.36a.85.85,0,0,0,.25-.14c.12-.08.19-.54.19-1.36v-.29l0-2.46c0-.66,0-1.13,0-1.44-.12.29-.36.91-.73,1.9-1.12,2.93-1.81,4.4-2.07,4.4s-.29-.2-.51-.61-.63-1.25-1.13-2.46Z" transform="translate(-911.98 -511.62)"/><path class="cls-2" d="M981,551.54a5,5,0,0,0-.8-2.93,2.34,2.34,0,0,0-2-1.13,2,2,0,0,0-1.64.78,3.27,3.27,0,0,0-.63,2.1,5,5,0,0,0,.78,2.93,2.29,2.29,0,0,0,2,1.13,2,2,0,0,0,1.68-.78A3.23,3.23,0,0,0,981,551.54Zm1.64-.41a4.09,4.09,0,0,1-.76,2.47,3.71,3.71,0,0,1-1.44,1.2,4.28,4.28,0,0,1-1.9.44,4.2,4.2,0,0,1-4.23-4.42,4,4,0,0,1,4.17-4.15,3.93,3.93,0,0,1,2.56.86,4.14,4.14,0,0,1,1.19,1.54A5.16,5.16,0,0,1,982.6,551.14Z" transform="translate(-911.98 -511.62)"/><path class="cls-2" d="M966.8,550.22h.49A3.75,3.75,0,0,0,969,550a.61.61,0,0,0,.05-.3v-.25c0-1.1-.05-1.68-.17-1.76a.85.85,0,0,0-.25-.14c-.24-.08-.36-.22-.36-.37s.08-.25.27-.3a6.33,6.33,0,0,1,1.27-.08,6.08,6.08,0,0,1,1.27.08.3.3,0,0,1,.25.3c0,.15-.12.29-.36.37a1.73,1.73,0,0,0-.25.14c-.15.1-.22,1.17-.22,3.15a13.4,13.4,0,0,0,.17,3.22l.36.2c.2.12.3.22.3.34s-.1.29-.32.36a7.26,7.26,0,0,1-2.42,0c-.22-.05-.32-.17-.32-.36s.12-.27.36-.36a.85.85,0,0,0,.25-.14c.12-.08.17-.68.17-1.78a4.66,4.66,0,0,0-.05-1,.44.44,0,0,0-.36-.15,10.92,10.92,0,0,0-1.34-.05,4.43,4.43,0,0,0-1.66.15,1.18,1.18,0,0,0-.08.59v.47c0,1.1.05,1.69.17,1.78a.85.85,0,0,0,.25.14q.36.13.36.36a.35.35,0,0,1-.3.36,7.36,7.36,0,0,1-2.44,0c-.22-.07-.32-.19-.32-.36s.12-.27.36-.36a.85.85,0,0,0,.25-.14c.15-.1.22-1.2.22-3.27a12.26,12.26,0,0,0-.17-3.08,1.49,1.49,0,0,0-.36-.2c-.2-.12-.3-.24-.3-.37a.3.3,0,0,1,.25-.3,6.41,6.41,0,0,1,1.29-.08,6.33,6.33,0,0,1,1.27.08.3.3,0,0,1,.25.3c0,.15-.1.29-.34.37a.85.85,0,0,0-.25.14c-.08.05-.12.19-.15.42s0,.83,0,1.69a.29.29,0,0,0,.22.3A4.13,4.13,0,0,0,966.8,550.22Z" transform="translate(-911.98 -511.62)"/><path class="cls-1" d="M980.16,548.61a5,5,0,0,1,.8,2.93,3.23,3.23,0,0,1-.63,2.1,2,2,0,0,1-1.68.78,2.29,2.29,0,0,1-2-1.13,5,5,0,0,1-.78-2.93,3.27,3.27,0,0,1,.63-2.1,2,2,0,0,1,1.64-.78A2.34,2.34,0,0,1,980.16,548.61Z" transform="translate(-911.98 -511.62)"/><path class="cls-1" d="M953.94,550.87a11.11,11.11,0,0,1-.2,3.27.85.85,0,0,1-.25.14q-.36.13-.36.36c0,.17.1.29.32.36a4.76,4.76,0,0,0,1.2.1,4.9,4.9,0,0,0,1.24-.1.35.35,0,0,0,.3-.36q0-.23-.36-.36a.85.85,0,0,1-.25-.14,4.82,4.82,0,0,1-.17-1.69c0-.64,0-1,0-1s0-.07.07-.07a.12.12,0,0,1,.1.07l.68.8a18.46,18.46,0,0,0,2.47,2.64,1.06,1.06,0,0,0,.66.17c.86,0,1.3-.15,1.3-.44s-.14-.25-.39-.34l-.36-.15a31.45,31.45,0,0,1-3.34-3.54.25.25,0,0,1,0-.34l.56-.68a8.23,8.23,0,0,1,2.12-2l.29-.07c.27-.05.41-.14.41-.29a.31.31,0,0,0-.24-.3,5.36,5.36,0,0,0-1.17-.08,5.09,5.09,0,0,0-1.13.08.26.26,0,0,0-.24.27q0,.15.25.3c.19.12.27.19.27.22s-.14.32-.42.64l-.61.66c-.17.17-.37.41-.63.71s-.51.54-.58.54-.14-.05-.14-.17a6,6,0,0,1,.22-2.37,1.72,1.72,0,0,1,.25-.14c.24-.08.36-.22.36-.37a.3.3,0,0,0-.25-.3,6.41,6.41,0,0,0-1.29-.08,6.09,6.09,0,0,0-1.27.08.3.3,0,0,0-.25.3c0,.14.1.25.3.37a1.49,1.49,0,0,1,.36.2A13.84,13.84,0,0,1,953.94,550.87Zm-10.91-4a4.05,4.05,0,0,0-1,.08.34.34,0,0,0-.25.32c0,.12.1.22.3.34a1.89,1.89,0,0,1,.36.22,12.26,12.26,0,0,1,.17,3.08,13.19,13.19,0,0,1-.17,3.22l-.36.2c-.2.1-.3.22-.3.34a.34.34,0,0,0,.27.34,3,3,0,0,0,.95.1,3.11,3.11,0,0,0,.95-.1.34.34,0,0,0,.27-.34.35.35,0,0,0-.17-.29.5.5,0,0,0-.32-.14c-.12,0-.2-.2-.25-.64s-.07-1.54-.07-3.15v-.54c0-.56,0-.95,0-1.17.12.12.27.3.47.56l2.42,3,.19.24c1.37,1.71,2.25,2.56,2.64,2.56.12,0,.19,0,.22-.1a1.61,1.61,0,0,0,.05-.53v-.71c0-.41,0-.76,0-1.08a41.41,41.41,0,0,1,.14-4.84c0-.08.12-.15.29-.22l.1,0c.2-.08.29-.2.29-.36a.31.31,0,0,0-.24-.32,3.53,3.53,0,0,0-.93-.08,4.15,4.15,0,0,0-1,.08.33.33,0,0,0-.24.32c0,.15.15.29.47.41a.35.35,0,0,1,.22.22,38.34,38.34,0,0,1,.12,4.22c0,.3,0,.53,0,.66-.3-.32-.81-.91-1.49-1.74l-1.29-1.59c-.88-1.08-1.52-1.91-2-2.47A2,2,0,0,0,943,546.82Zm-4.3.08a6.09,6.09,0,0,0-1.27-.08,6.29,6.29,0,0,0-1.29.08c-.19.05-.27.15-.27.3s.1.25.3.37a1.44,1.44,0,0,1,.37.2,13.3,13.3,0,0,1,.17,3.08c0,2.07-.08,3.15-.24,3.27a.79.79,0,0,1-.25.14q-.36.13-.36.36c0,.17.12.29.34.36a4.58,4.58,0,0,0,1.2.1,4.74,4.74,0,0,0,1.22-.1c.22-.05.32-.17.32-.36s-.1-.24-.3-.34l-.36-.2a20.82,20.82,0,0,1-.15-3.85,6.93,6.93,0,0,1,.2-2.52.85.85,0,0,1,.25-.14c.24-.08.36-.2.36-.37A.3.3,0,0,0,938.73,546.9Zm-13.06.88a13.29,13.29,0,0,1,.17,3.08c0,2.07-.08,3.17-.24,3.27a.85.85,0,0,1-.25.14q-.36.13-.36.36c0,.17.12.29.32.36a7.36,7.36,0,0,0,2.44,0,.36.36,0,0,0,.32-.36q0-.23-.36-.36a.85.85,0,0,1-.25-.14c-.12-.08-.19-.68-.19-1.78v-.47c0-.34,0-.54.1-.59a4.25,4.25,0,0,1,1.64-.15,11.26,11.26,0,0,1,1.36.05c.19,0,.29.07.34.15a4.08,4.08,0,0,1,.07,1c0,1.1-.07,1.69-.19,1.78a.85.85,0,0,1-.25.14q-.36.13-.36.36c0,.19.1.3.32.36a4.74,4.74,0,0,0,1.22.1,4.59,4.59,0,0,0,1.2-.1c.22-.07.34-.19.34-.36s-.1-.22-.32-.34l-.36-.2a14.55,14.55,0,0,1-.17-3.22c0-2,.08-3,.24-3.15a.85.85,0,0,1,.25-.14c.24-.08.36-.22.36-.37a.3.3,0,0,0-.25-.3,6.42,6.42,0,0,0-1.29-.08,6.33,6.33,0,0,0-1.27.08c-.19.05-.27.15-.27.3s.12.29.36.37a.85.85,0,0,1,.25.14c.12.08.19.66.19,1.76v.25a.57.57,0,0,1-.07.3,3.75,3.75,0,0,1-1.69.19h-.47a4.2,4.2,0,0,1-1.05-.08.31.31,0,0,1-.22-.3c0-.86,0-1.42.05-1.69s.07-.37.14-.42a.85.85,0,0,1,.25-.14c.24-.08.36-.22.36-.37s-.08-.25-.27-.3a6.2,6.2,0,0,0-1.27-.08,6.54,6.54,0,0,0-1.29.08.3.3,0,0,0-.25.3c0,.14.1.25.3.37A3,3,0,0,1,925.67,547.78Zm-9.77,1.05c.14-.32.25-.58.34-.78a1.15,1.15,0,0,1,1-.41h.25c.27,0,.42.08.44.25.05.41.07,1.2.07,2.42a20.85,20.85,0,0,1-.14,3.76l-.37.2c-.2.1-.3.22-.3.34s.12.29.32.36a4.83,4.83,0,0,0,1.22.1,4.58,4.58,0,0,0,1.2-.1c.22-.07.34-.19.34-.36s-.1-.22-.3-.34l-.37-.2a22.64,22.64,0,0,1-.14-3.76c0-1.24,0-2,.07-2.42q0-.25.46-.25h.22a1.17,1.17,0,0,1,1,.41c.14.3.25.56.34.78a.44.44,0,0,0,.36.24c.24,0,.36-.22.36-.64a3.42,3.42,0,0,0-.19-1.22q-.18-.46-.46-.46h-.05a7.66,7.66,0,0,1-1.15.07H917a7.15,7.15,0,0,1-1.13-.07h-.07q-.28,0-.46.46a3.46,3.46,0,0,0-.17,1.22c0,.42.1.64.32.64A.44.44,0,0,0,915.9,548.83ZM966,547.58c.24-.08.34-.22.34-.37a.3.3,0,0,0-.25-.3,6.33,6.33,0,0,0-1.27-.08,6.41,6.41,0,0,0-1.29.08.3.3,0,0,0-.25.3c0,.14.1.25.3.37a1.49,1.49,0,0,1,.36.2,12.26,12.26,0,0,1,.17,3.08c0,2.07-.07,3.17-.22,3.27a.85.85,0,0,1-.25.14q-.36.13-.36.36c0,.17.1.29.32.36a7.36,7.36,0,0,0,2.44,0,.35.35,0,0,0,.3-.36q0-.23-.36-.36a.85.85,0,0,1-.25-.14c-.12-.08-.17-.68-.17-1.78v-.47a1.18,1.18,0,0,1,.08-.59,4.43,4.43,0,0,1,1.66-.15,10.92,10.92,0,0,1,1.34.05.44.44,0,0,1,.36.15,4.66,4.66,0,0,1,.05,1c0,1.1-.05,1.69-.17,1.78a.85.85,0,0,1-.25.14q-.36.13-.36.36c0,.19.1.3.32.36a7.26,7.26,0,0,0,2.42,0c.22-.07.32-.19.32-.36s-.1-.22-.3-.34l-.36-.2a13.4,13.4,0,0,1-.17-3.22c0-2,.07-3,.22-3.15a1.73,1.73,0,0,1,.25-.14c.24-.08.36-.22.36-.37a.3.3,0,0,0-.25-.3,6.08,6.08,0,0,0-1.27-.08,6.33,6.33,0,0,0-1.27.08c-.19.05-.27.15-.27.3s.12.29.36.37a.85.85,0,0,1,.25.14c.12.08.17.66.17,1.76v.25a.61.61,0,0,1-.05.3,3.75,3.75,0,0,1-1.69.19h-.49a4.13,4.13,0,0,1-1-.08.29.29,0,0,1-.22-.3c0-.86,0-1.42,0-1.69s.07-.37.15-.42A.85.85,0,0,1,966,547.58Zm15.85,6a4.09,4.09,0,0,0,.76-2.47,5.16,5.16,0,0,0-.42-2,4.14,4.14,0,0,0-1.19-1.54,3.93,3.93,0,0,0-2.56-.86,4,4,0,0,0-4.17,4.15,4.2,4.2,0,0,0,4.23,4.42,4.28,4.28,0,0,0,1.9-.44A3.71,3.71,0,0,0,981.84,553.61ZM999.37,555h3.88a2.76,2.76,0,0,1,.76.1l.15,0c.15,0,.29-.14.39-.42a4.55,4.55,0,0,0,.34-1.56c0-.36-.1-.53-.32-.53s-.25.14-.36.42a2.54,2.54,0,0,1-.19.37,1.29,1.29,0,0,1-.54.58,2.23,2.23,0,0,1-.91.15h-.75c-.76,0-1.19-.12-1.29-.36a5.78,5.78,0,0,1-.12-1.61v-.54a1.45,1.45,0,0,1,.05-.47.25.25,0,0,1,.22-.08h1a1.11,1.11,0,0,1,.63.14.61.61,0,0,1,.24.47c0,.07,0,.12,0,.14.05.39.17.58.37.58a.34.34,0,0,0,.34-.3,6,6,0,0,0,.1-1.41,6.3,6.3,0,0,0-.1-1.42.34.34,0,0,0-.34-.3c-.2,0-.32.19-.37.56a1.07,1.07,0,0,1,0,.15.63.63,0,0,1-.22.47,1.21,1.21,0,0,1-.64.14h-1c-.12,0-.19,0-.22-.07a1.26,1.26,0,0,1,0-.34v-.46a3.43,3.43,0,0,1,.19-1.59c.14-.17.54-.27,1.22-.27h.78a1.2,1.2,0,0,1,1,.37c0,.07.1.15.17.27s.29.39.42.39.37-.17.37-.53a2.46,2.46,0,0,0-.34-1.27.24.24,0,0,0-.24-.14,4.36,4.36,0,0,1-.86.12h-3.52a6.24,6.24,0,0,0-1.25.08.3.3,0,0,0-.25.3q0,.18.3.36a1.9,1.9,0,0,1,.36.22,12.47,12.47,0,0,1,.17,3.08c0,2.07-.07,3.17-.22,3.27a.9.9,0,0,1-.25.12q-.36.15-.36.41a.26.26,0,0,0,.2.29A4.13,4.13,0,0,0,999.37,555ZM912,544.55h96.11v12.79H912Zm75.26,6.66.05-2.27,1.25,2.9c.51,1.2.9,2,1.13,2.46s.39.61.51.61.95-1.47,2.07-4.4c.37-1,.61-1.61.73-1.9,0,.3,0,.78,0,1.44l0,2.46v.29c0,.81-.07,1.27-.19,1.36a.85.85,0,0,1-.25.14q-.36.13-.36.36c0,.17.12.29.32.36a4.37,4.37,0,0,0,1.17.1A5.06,5.06,0,0,0,995,555c.22-.05.32-.17.32-.36s-.1-.25-.29-.34l-.12-.05c-.17-.05-.27-.14-.29-.22a35.32,35.32,0,0,1-.17-4.95,7.13,7.13,0,0,1,.05-1.1.49.49,0,0,1,.24-.34.37.37,0,0,1,.15-.05c.22-.08.34-.2.34-.37s-.1-.25-.27-.3a4.26,4.26,0,0,0-1-.08,2,2,0,0,0-1.12.19,2.63,2.63,0,0,0-.37.81,2.81,2.81,0,0,1-.12.36c-1,3-1.66,4.49-1.85,4.49a23.46,23.46,0,0,1-1.52-3.46l-.49-1.22a4.78,4.78,0,0,0-.49-1.1,3.69,3.69,0,0,0-1.07-.07,4.75,4.75,0,0,0-1.08.08.3.3,0,0,0-.25.3c0,.17.12.29.37.37a1.33,1.33,0,0,1,.27.14c.14.08.22.44.22,1.08V549c0,1.13,0,2.22-.08,3.29a10.14,10.14,0,0,1-.17,1.74s-.12.12-.34.25-.3.25-.3.36c0,.3.39.46,1.19.46s1.29-.15,1.29-.46q0-.23-.36-.36a.85.85,0,0,1-.25-.14c-.1-.08-.15-.54-.15-1.39C987.23,552.36,987.23,551.85,987.24,551.2Z" transform="translate(-911.98 -511.62)"/></g></svg>