<svg id="圖層_1" data-name="圖層 1" xmlns="http://www.w3.org/2000/svg" xmlns:xlink="http://www.w3.org/1999/xlink" viewBox="0 0 47.83 15.81"><defs><style>.cls-1{fill:none;}.cls-2{clip-path:url(#clip-path);}.cls-3{fill:#f79433;}.cls-4{clip-path:url(#clip-path-2);}.cls-5{clip-path:url(#clip-path-3);}</style><clipPath id="clip-path" transform="translate(-0.08 -0.1)"><rect class="cls-1" x="16" width="16" height="16"/></clipPath><clipPath id="clip-path-2" transform="translate(-0.08 -0.1)"><rect class="cls-1" width="16" height="16"/></clipPath><clipPath id="clip-path-3" transform="translate(-0.08 -0.1)"><rect class="cls-1" x="32" width="16" height="16"/></clipPath></defs><title>未命名-6</title><g class="cls-2"><path class="cls-3" d="M24,15.89A7.81,7.81,0,0,1,16.09,8,7.91,7.91,0,1,1,31.91,8,7.82,7.82,0,0,1,24,15.89Zm3.72-10.8L27.6,5a1.21,1.21,0,0,1-1.44,0,1.51,1.51,0,0,0-2.09.78,7,7,0,0,0-.24,1A4.61,4.61,0,0,1,20.56,5,1.87,1.87,0,0,0,21,7.22l-.63-.13a1.83,1.83,0,0,0,1.11,1.6L21,8.77l-.1.17L22.31,10l-2.06.61c.21.1.38.2.56.28A4.56,4.56,0,0,0,27,7.57c.15-.68.11-1.42.75-1.92l-.57.1Z" transform="translate(-0.08 -0.1)"/></g><g class="cls-4"><path class="cls-3" d="M7.94,15.89a7.9,7.9,0,1,1,8-7.85A7.85,7.85,0,0,1,7.94,15.89ZM7.1,7,6,7v1.3l1.14.09v3.28H8.55V8.42c.42-.08.91,0,1.1-.25s.13-.71.19-1.16H9.2L8.49,7c.07-.46,0-1,.21-1.2s.75-.22,1.15-.32V4.37C7.8,4.06,7.39,4.45,7.1,7Z" transform="translate(-0.08 -0.1)"/></g><g class="cls-5"><path class="cls-3" d="M40,15.89a7.89,7.89,0,1,1,8-7.87A7.84,7.84,0,0,1,40,15.89ZM40,4.29h0c-.88,0-1.76,0-2.64,0s-1.11.3-1.11,1.13q0,2.61,0,5.22c0,.78.31,1.1,1.09,1.11q2.64,0,5.28,0c.79,0,1.08-.31,1.09-1.1q0-2.64,0-5.28c0-.75-.31-1.06-1.05-1.07Z" transform="translate(-0.08 -0.1)"/><path class="cls-3" d="M37.72,7.5A2.42,2.42,0,0,0,40,10.32,2.39,2.39,0,0,0,42.27,7.5h.57c0,1,0,2,0,2.94a.6.6,0,0,1-.43.39q-2.37,0-4.74,0c-.16,0-.45-.24-.45-.37,0-1,0-2,0-3Z" transform="translate(-0.08 -0.1)"/><path class="cls-3" d="M40,9.42A1.38,1.38,0,0,1,38.6,8a1.4,1.4,0,0,1,2.8,0A1.38,1.38,0,0,1,40,9.42Z" transform="translate(-0.08 -0.1)"/><path class="cls-3" d="M42.82,5.83c.14.63-.18.74-.72.76s-.66-.28-.68-.77.29-.66.77-.66S43,5.3,42.82,5.83Z" transform="translate(-0.08 -0.1)"/></g></svg>