<svg id="圖層_1" data-name="圖層 1" xmlns="http://www.w3.org/2000/svg" viewBox="0 0 56 5.35"><defs><style>.cls-1{fill:#fff;}</style></defs><title>smalllogo_w</title><path class="cls-1" d="M934.73,537.59a5.28,5.28,0,0,0,.72,0h0q.18,0,.29.29a2.16,2.16,0,0,1,.11.76q0,.41-.21.41a.25.25,0,0,1-.22-.15q-.08-.2-.22-.48a.71.71,0,0,0-.63-.26h-.15q-.26,0-.28.16,0,.36,0,1.51a14.11,14.11,0,0,0,.08,2.35l.23.13q.19.1.19.22t-.2.22a4.66,4.66,0,0,1-1.51,0q-.2-.06-.2-.22t.19-.22l.23-.12a13.75,13.75,0,0,0,.09-2.35q0-1.13,0-1.51,0-.16-.28-.16h-.16a.7.7,0,0,0-.62.26l-.22.48a.27.27,0,0,1-.23.15q-.2,0-.2-.41a2.17,2.17,0,0,1,.11-.76q.11-.29.28-.29h0a5.12,5.12,0,0,0,.71,0Z" transform="translate(-931.47 -537.5)"/><path class="cls-1" d="M938.11,540.12a8,8,0,0,0-.11-1.93l-.23-.13q-.19-.11-.19-.22a.19.19,0,0,1,.16-.19,3.64,3.64,0,0,1,.81-.06,3.49,3.49,0,0,1,.79.06.19.19,0,0,1,.16.19q0,.14-.22.23l-.16.08s-.08.12-.09.27,0,.52,0,1.05a.19.19,0,0,0,.13.2,2.54,2.54,0,0,0,.65.05h.3q1,0,1.06-.12a.34.34,0,0,0,0-.19v-.16a2.61,2.61,0,0,0-.11-1.1l-.16-.08q-.22-.09-.22-.23a.19.19,0,0,1,.17-.19,3.54,3.54,0,0,1,.79-.06,3.77,3.77,0,0,1,.8.05.19.19,0,0,1,.16.2q0,.14-.22.23l-.16.08a6,6,0,0,0-.14,2,8.51,8.51,0,0,0,.11,2l.22.13q.19.1.19.22t-.2.22a3,3,0,0,1-.76.06,3.13,3.13,0,0,1-.76-.06q-.2-.06-.2-.22t.22-.23l.16-.08a2.65,2.65,0,0,0,.11-1.11,2.71,2.71,0,0,0,0-.64.3.3,0,0,0-.22-.1,8.09,8.09,0,0,0-.84,0,2.79,2.79,0,0,0-1,.09s-.06.16-.06.37v.3a2.61,2.61,0,0,0,.11,1.11l.16.08q.22.08.22.23t-.2.22a3.13,3.13,0,0,1-.76.06,3,3,0,0,1-.76-.06q-.2-.06-.2-.22t.22-.23l.16-.08A6.33,6.33,0,0,0,938.11,540.12Z" transform="translate(-931.47 -537.5)"/><path class="cls-1" d="M944.92,540.12a7.93,7.93,0,0,0-.11-1.93l-.23-.13q-.19-.11-.19-.22a.19.19,0,0,1,.16-.19,3.59,3.59,0,0,1,.8-.06,3.71,3.71,0,0,1,.8.05.19.19,0,0,1,.16.2q0,.15-.22.23l-.16.08a4.35,4.35,0,0,0-.13,1.58,13.3,13.3,0,0,0,.09,2.4l.22.12q.19.11.19.22t-.2.22a3.13,3.13,0,0,1-.76.06,3,3,0,0,1-.76-.06q-.2-.06-.2-.22t.22-.23l.16-.08A6.38,6.38,0,0,0,944.92,540.12Z" transform="translate(-931.47 -537.5)"/><path class="cls-1" d="M949.12,538.76q0,.21,0,.72v.34q0,1.51,0,2t.16.4a.31.31,0,0,1,.2.08.24.24,0,0,1,.1.18.22.22,0,0,1-.17.22,1.91,1.91,0,0,1-.59.06,1.89,1.89,0,0,1-.59-.06.22.22,0,0,1-.17-.22q0-.11.19-.21l.22-.12a8.94,8.94,0,0,0,.1-2,8.46,8.46,0,0,0-.1-1.93l-.22-.13q-.19-.11-.19-.21a.2.2,0,0,1,.16-.2,2.19,2.19,0,0,1,.6-.06,1.16,1.16,0,0,1,.53.07l1.23,1.55.81,1q.64.78.93,1.09,0-.13,0-.42a21.71,21.71,0,0,0-.08-2.63.19.19,0,0,0-.13-.13q-.3-.11-.3-.26a.2.2,0,0,1,.15-.2,2.32,2.32,0,0,1,.63-.05,2.09,2.09,0,0,1,.59.05.2.2,0,0,1,.15.2q0,.14-.18.22l-.07,0q-.15.06-.18.14a25.49,25.49,0,0,0-.08,3q0,.3,0,.68v.44a1,1,0,0,1,0,.33.13.13,0,0,1-.14.07q-.37,0-1.65-1.61l-.11-.14-1.52-1.91Z" transform="translate(-931.47 -537.5)"/><path class="cls-1" d="M957.33,539.75a.2.2,0,0,0-.05.12.17.17,0,0,0,0,.09,19.33,19.33,0,0,0,2.09,2.21l.22.09q.24.08.24.22t-.82.27a.7.7,0,0,1-.41-.1,11.81,11.81,0,0,1-1.54-1.65l-.42-.5a.1.1,0,0,0-.07,0s0,0,0,0v0q0-.09,0,.58a2.81,2.81,0,0,0,.11,1.06l.16.08q.22.09.22.23t-.2.22a3.15,3.15,0,0,1-.77.06,3,3,0,0,1-.75-.06q-.2-.06-.2-.22t.22-.23l.16-.08a6.62,6.62,0,0,0,.13-2,8.61,8.61,0,0,0-.1-1.93l-.23-.13q-.19-.11-.19-.22a.19.19,0,0,1,.16-.2,3.71,3.71,0,0,1,.8-.05,3.59,3.59,0,0,1,.8.06.19.19,0,0,1,.16.19q0,.14-.22.23l-.16.08a3.56,3.56,0,0,0-.14,1.48q0,.11.08.11t.36-.34l.39-.44.38-.42q.27-.29.27-.4s-.06-.07-.17-.13-.17-.13-.17-.19a.18.18,0,0,1,.15-.18,3.21,3.21,0,0,1,.7,0,3.17,3.17,0,0,1,.73.05.18.18,0,0,1,.15.19q0,.14-.25.19l-.18,0a4.87,4.87,0,0,0-1.32,1.27Z" transform="translate(-931.47 -537.5)"/><path class="cls-1" d="M962,540.12a8,8,0,0,0-.11-1.93l-.23-.13q-.19-.11-.19-.22a.19.19,0,0,1,.16-.19,3.64,3.64,0,0,1,.81-.06,3.49,3.49,0,0,1,.79.06.19.19,0,0,1,.16.19q0,.14-.22.23l-.16.08s-.08.12-.09.27,0,.52,0,1.05a.19.19,0,0,0,.13.2,2.54,2.54,0,0,0,.65.05h.3q1,0,1.06-.12a.34.34,0,0,0,0-.19v-.16a2.61,2.61,0,0,0-.11-1.1l-.16-.08q-.22-.09-.22-.23a.19.19,0,0,1,.17-.19,3.54,3.54,0,0,1,.79-.06,3.77,3.77,0,0,1,.8.05.19.19,0,0,1,.16.2q0,.14-.22.23l-.16.08a6,6,0,0,0-.14,2,8.52,8.52,0,0,0,.11,2l.22.13q.19.1.19.22t-.2.22a3,3,0,0,1-.76.06,3.13,3.13,0,0,1-.76-.06q-.2-.06-.2-.22t.22-.23l.16-.08a2.65,2.65,0,0,0,.11-1.11,2.71,2.71,0,0,0,0-.64.3.3,0,0,0-.22-.1,8.09,8.09,0,0,0-.84,0,2.79,2.79,0,0,0-1,.09s-.06.16-.06.37v.3a2.61,2.61,0,0,0,.11,1.11l.16.08q.22.08.22.23t-.2.22a3.13,3.13,0,0,1-.76.06,3,3,0,0,1-.76-.06q-.2-.06-.2-.22t.22-.23l.16-.08A6.33,6.33,0,0,0,962,540.12Z" transform="translate(-931.47 -537.5)"/><path class="cls-1" d="M971,542.85a2.6,2.6,0,0,1-2.64-2.75,2.46,2.46,0,0,1,2.6-2.6,2.46,2.46,0,0,1,1.6.54,2.56,2.56,0,0,1,.74,1,3.09,3.09,0,0,1,.26,1.27,2.58,2.58,0,0,1-.47,1.55,2.36,2.36,0,0,1-.9.75A2.68,2.68,0,0,1,971,542.85Zm1.54-2.31a3.13,3.13,0,0,0-.49-1.82,1.47,1.47,0,0,0-1.25-.71,1.25,1.25,0,0,0-1,.49,2.06,2.06,0,0,0-.39,1.31,3.19,3.19,0,0,0,.48,1.83,1.45,1.45,0,0,0,1.24.71,1.28,1.28,0,0,0,1-.49A2,2,0,0,0,972.53,540.53Z" transform="translate(-931.47 -537.5)"/><path class="cls-1" d="M980,538.7l-.45,1.18q-1,2.75-1.29,2.75t-.32-.37q-.22-.41-.71-1.54l-.78-1.81,0,1.42q0,.6,0,1,0,.79.1.87l.16.08q.22.09.22.23t-.8.28q-.75,0-.75-.29,0-.09.2-.22a.79.79,0,0,0,.21-.16,7.34,7.34,0,0,0,.1-1.1q.05-1,.05-2.05v-.11q0-.59-.14-.68l-.17-.08q-.23-.09-.23-.23a.2.2,0,0,1,.17-.2,2.81,2.81,0,0,1,.68-.05,2.28,2.28,0,0,1,.66,0,3,3,0,0,1,.31.68l.31.76a15.24,15.24,0,0,0,.94,2.15,10.43,10.43,0,0,0,1.16-2.8l.07-.22a1.51,1.51,0,0,1,.24-.51q.11-.12.69-.12a2.54,2.54,0,0,1,.64.05.2.2,0,0,1,.16.2q0,.15-.21.22l-.1,0a.31.31,0,0,0-.14.2,4.2,4.2,0,0,0,0,.69,22.61,22.61,0,0,0,.11,3.09q0,.08.18.14l.07,0q.18.07.18.22t-.2.22a3.26,3.26,0,0,1-.79.06,2.83,2.83,0,0,1-.73-.06q-.2-.06-.2-.22t.22-.23l.15-.08q.11-.09.11-.84V539.6Q980,539,980,538.7Z" transform="translate(-931.47 -537.5)"/><path class="cls-1" d="M984,542.71a2.65,2.65,0,0,1-.65,0,.18.18,0,0,1-.13-.19q0-.16.23-.25l.15-.08a6.33,6.33,0,0,0,.14-2,8,8,0,0,0-.11-1.93l-.22-.13q-.19-.11-.19-.23a.19.19,0,0,1,.16-.19,3.65,3.65,0,0,1,.78-.05h2.19a2.73,2.73,0,0,0,.54-.08.17.17,0,0,1,.15.09,1.52,1.52,0,0,1,.21.79q0,.33-.23.33t-.27-.25l-.11-.17a.73.73,0,0,0-.64-.23h-.49q-.64,0-.77.16a2.32,2.32,0,0,0-.11,1v.29a.49.49,0,0,0,0,.21s.06,0,.13,0h.64a.73.73,0,0,0,.4-.08.43.43,0,0,0,.15-.3v-.09q.05-.35.23-.35t.22.19a4.21,4.21,0,0,1,.06.89,4.07,4.07,0,0,1-.06.88q-.05.19-.22.19t-.23-.35v-.09a.44.44,0,0,0-.15-.3.72.72,0,0,0-.4-.08h-.63a.14.14,0,0,0-.13.06.77.77,0,0,0,0,.29V541a3.62,3.62,0,0,0,.08,1q.09.22.8.22H986a1.33,1.33,0,0,0,.57-.1.84.84,0,0,0,.34-.35,2.14,2.14,0,0,0,.11-.24q.1-.27.23-.27t.2.33a2.74,2.74,0,0,1-.21,1q-.1.27-.25.27l-.09,0a1.75,1.75,0,0,0-.47-.07Z" transform="translate(-931.47 -537.5)"/></svg>