<svg id="圖層_1" data-name="圖層 1" xmlns="http://www.w3.org/2000/svg" viewBox="0 0 86.54 8.27"><defs><style>.cls-1{fill:#291903;}</style></defs><title>smalllogo</title><path class="cls-1" d="M921.67,536.89a8.16,8.16,0,0,0,1.11-.06h.06q.27,0,.44.45a3.35,3.35,0,0,1,.17,1.17q0,.63-.33.63a.39.39,0,0,1-.34-.24q-.12-.3-.34-.74a1.09,1.09,0,0,0-1-.4h-.23q-.41,0-.44.25-.06.56-.06,2.34a21.84,21.84,0,0,0,.13,3.63l.36.2q.3.16.3.33t-.32.34a7.2,7.2,0,0,1-2.34,0q-.31-.1-.31-.34t.3-.34l.36-.19a21.27,21.27,0,0,0,.13-3.63q0-1.75-.07-2.34,0-.24-.43-.24h-.24a1.09,1.09,0,0,0-1,.4l-.33.74a.42.42,0,0,1-.36.24q-.31,0-.31-.63a3.35,3.35,0,0,1,.17-1.17q.17-.45.44-.45h.06a7.93,7.93,0,0,0,1.1.06Z" transform="translate(-916.63 -536.76)"/><path class="cls-1" d="M926.9,540.81a12.33,12.33,0,0,0-.16-3l-.35-.2q-.29-.17-.29-.35a.29.29,0,0,1,.24-.3,5.62,5.62,0,0,1,1.25-.09,5.4,5.4,0,0,1,1.22.09.29.29,0,0,1,.25.3q0,.22-.34.36a1.27,1.27,0,0,0-.24.12q-.11.08-.14.41t0,1.63a.29.29,0,0,0,.21.3,3.92,3.92,0,0,0,1,.08H930q1.49,0,1.63-.18a.53.53,0,0,0,.05-.29v-.25a4,4,0,0,0-.16-1.7,1.26,1.26,0,0,0-.25-.12q-.34-.13-.34-.36a.3.3,0,0,1,.26-.3,5.47,5.47,0,0,1,1.23-.09,5.82,5.82,0,0,1,1.24.08.29.29,0,0,1,.24.3q0,.22-.35.36a1.1,1.1,0,0,0-.24.12,9.26,9.26,0,0,0-.22,3.05,13.18,13.18,0,0,0,.16,3.1l.34.2q.3.16.3.33t-.31.34a4.68,4.68,0,0,1-1.17.1,4.84,4.84,0,0,1-1.18-.09q-.31-.09-.31-.34t.34-.36a1,1,0,0,0,.25-.12,4.1,4.1,0,0,0,.16-1.72,4.19,4.19,0,0,0-.05-1,.46.46,0,0,0-.34-.15,12.46,12.46,0,0,0-1.3,0,4.31,4.31,0,0,0-1.59.14q-.09.07-.09.58v.46a4,4,0,0,0,.17,1.72,1,1,0,0,0,.25.12q.34.13.34.36t-.31.34a4.84,4.84,0,0,1-1.18.09,4.68,4.68,0,0,1-1.17-.1q-.31-.1-.31-.34t.34-.36a1.11,1.11,0,0,0,.24-.12A9.8,9.8,0,0,0,926.9,540.81Z" transform="translate(-916.63 -536.76)"/><path class="cls-1" d="M937.42,540.81a12.26,12.26,0,0,0-.16-3l-.35-.2q-.29-.16-.29-.35a.29.29,0,0,1,.25-.3,5.54,5.54,0,0,1,1.24-.09,5.74,5.74,0,0,1,1.23.08.29.29,0,0,1,.24.3q0,.23-.34.36a1,1,0,0,0-.24.12,6.73,6.73,0,0,0-.2,2.45,20.57,20.57,0,0,0,.14,3.71l.35.19q.29.16.29.34t-.31.34a4.84,4.84,0,0,1-1.18.09,4.69,4.69,0,0,1-1.17-.1q-.31-.1-.31-.34t.34-.36a1.07,1.07,0,0,0,.24-.12A9.87,9.87,0,0,0,937.42,540.81Z" transform="translate(-916.63 -536.76)"/><path class="cls-1" d="M943.91,538.71q0,.32,0,1.12v.53q0,2.34.06,3t.24.62a.48.48,0,0,1,.31.13.36.36,0,0,1,.15.27.35.35,0,0,1-.26.34,2.94,2.94,0,0,1-.92.1,2.91,2.91,0,0,1-.91-.1.35.35,0,0,1-.26-.34q0-.17.3-.33l.35-.19a13.82,13.82,0,0,0,.15-3.1,13.07,13.07,0,0,0-.15-3l-.35-.2q-.3-.16-.3-.33a.31.31,0,0,1,.25-.31,3.38,3.38,0,0,1,.93-.09,1.79,1.79,0,0,1,.82.1q.63.81,1.89,2.39l1.25,1.53q1,1.21,1.43,1.68,0-.2,0-.64a33.55,33.55,0,0,0-.12-4.07.29.29,0,0,0-.2-.2q-.46-.17-.46-.4a.31.31,0,0,1,.24-.31,3.59,3.59,0,0,1,1-.08,3.24,3.24,0,0,1,.91.08.31.31,0,0,1,.23.31q0,.22-.28.33l-.11,0q-.24.09-.28.22a39.43,39.43,0,0,0-.13,4.67q0,.47,0,1v.68a1.53,1.53,0,0,1-.05.51.21.21,0,0,1-.21.11q-.58,0-2.55-2.48l-.18-.22-2.34-2.95Q944.08,538.88,943.91,538.71Z" transform="translate(-916.63 -536.76)"/><path class="cls-1" d="M956.59,540.23a.3.3,0,0,0-.08.19.27.27,0,0,0,0,.14,29.87,29.87,0,0,0,3.23,3.41,1.68,1.68,0,0,0,.34.14q.38.12.38.33,0,.42-1.26.42a1.09,1.09,0,0,1-.63-.16,18.24,18.24,0,0,1-2.38-2.55l-.65-.78a.15.15,0,0,0-.11-.06s-.05,0-.05.06v0q0-.14,0,.9a4.35,4.35,0,0,0,.18,1.65,1,1,0,0,0,.24.12q.35.13.34.36t-.31.34a4.87,4.87,0,0,1-1.18.09,4.65,4.65,0,0,1-1.16-.1q-.31-.1-.31-.34t.34-.36a1,1,0,0,0,.24-.12,10.25,10.25,0,0,0,.21-3.15,13.32,13.32,0,0,0-.15-3l-.35-.2q-.29-.17-.29-.35a.29.29,0,0,1,.24-.3,5.74,5.74,0,0,1,1.23-.08,5.54,5.54,0,0,1,1.24.09.29.29,0,0,1,.25.3q0,.22-.34.36a1.11,1.11,0,0,0-.24.12,5.51,5.51,0,0,0-.22,2.29q0,.16.12.16t.56-.53q.37-.44.6-.69l.59-.64q.41-.45.41-.62s-.09-.1-.26-.21-.26-.2-.26-.29a.28.28,0,0,1,.24-.28,8,8,0,0,1,2.22,0,.28.28,0,0,1,.23.29q0,.22-.38.29l-.28.07a7.53,7.53,0,0,0-2,2Z" transform="translate(-916.63 -536.76)"/><path class="cls-1" d="M963.81,540.81a12.33,12.33,0,0,0-.16-3l-.35-.2q-.29-.17-.29-.35a.29.29,0,0,1,.24-.3,5.63,5.63,0,0,1,1.25-.09,5.39,5.39,0,0,1,1.22.09.29.29,0,0,1,.25.3q0,.22-.34.36a1.27,1.27,0,0,0-.24.12q-.11.08-.14.41t0,1.63a.29.29,0,0,0,.21.3,3.92,3.92,0,0,0,1,.08h.47q1.49,0,1.63-.18a.53.53,0,0,0,.05-.29v-.25a4,4,0,0,0-.16-1.7,1.26,1.26,0,0,0-.25-.12q-.34-.13-.34-.36a.3.3,0,0,1,.26-.3,5.47,5.47,0,0,1,1.23-.09,5.83,5.83,0,0,1,1.24.08.29.29,0,0,1,.24.3q0,.22-.35.36a1.1,1.1,0,0,0-.24.12,9.26,9.26,0,0,0-.22,3.05,13.18,13.18,0,0,0,.16,3.1l.34.2q.3.16.3.33t-.31.34a4.68,4.68,0,0,1-1.17.1,4.84,4.84,0,0,1-1.18-.09q-.31-.09-.31-.34t.34-.36a1,1,0,0,0,.25-.12,4.1,4.1,0,0,0,.16-1.72,4.2,4.2,0,0,0-.05-1,.46.46,0,0,0-.34-.15,12.46,12.46,0,0,0-1.3,0,4.31,4.31,0,0,0-1.59.14q-.09.07-.09.58v.46a4,4,0,0,0,.17,1.72,1,1,0,0,0,.25.12q.34.13.34.36t-.31.34a4.84,4.84,0,0,1-1.18.09,4.68,4.68,0,0,1-1.17-.1q-.31-.1-.31-.34t.34-.36a1.11,1.11,0,0,0,.24-.12A9.8,9.8,0,0,0,963.81,540.81Z" transform="translate(-916.63 -536.76)"/><path class="cls-1" d="M977.71,545a4,4,0,0,1-4.08-4.25,3.81,3.81,0,0,1,4-4,3.8,3.8,0,0,1,2.47.83,4,4,0,0,1,1.14,1.5,4.78,4.78,0,0,1,.41,2,4,4,0,0,1-.73,2.39,3.65,3.65,0,0,1-1.39,1.16A4.14,4.14,0,0,1,977.71,545Zm2.38-3.58a4.85,4.85,0,0,0-.76-2.82,2.28,2.28,0,0,0-1.93-1.1,1.93,1.93,0,0,0-1.59.76,3.18,3.18,0,0,0-.6,2,4.93,4.93,0,0,0,.75,2.83,2.24,2.24,0,0,0,1.91,1.1,2,2,0,0,0,1.62-.76A3.15,3.15,0,0,0,980.09,541.45Z" transform="translate(-916.63 -536.76)"/><path class="cls-1" d="M991.68,538.61l-.7,1.82q-1.62,4.25-2,4.25-.18,0-.49-.58t-1.1-2.38l-1.2-2.79,0,2.19q0,.92,0,1.49,0,1.22.15,1.34a1.11,1.11,0,0,0,.24.12q.34.13.34.36,0,.44-1.24.44t-1.15-.45.31-.34a1.22,1.22,0,0,0,.32-.24,11.35,11.35,0,0,0,.16-1.69q.08-1.52.08-3.17v-.18q0-.92-.22-1.05l-.26-.12q-.36-.13-.36-.36a.31.31,0,0,1,.26-.3,4.35,4.35,0,0,1,1-.08,3.52,3.52,0,0,1,1,.07,4.67,4.67,0,0,1,.49,1.06l.47,1.18a23.58,23.58,0,0,0,1.46,3.33q.29,0,1.79-4.33l.11-.34a2.33,2.33,0,0,1,.36-.79q.17-.18,1.07-.18a3.92,3.92,0,0,1,1,.08.31.31,0,0,1,.25.3q0,.24-.32.35l-.15.06a.48.48,0,0,0-.22.31,6.51,6.51,0,0,0-.05,1.06,35,35,0,0,0,.16,4.78q0,.13.28.22l.11,0q.28.11.28.33t-.31.34a5,5,0,0,1-1.21.1,4.38,4.38,0,0,1-1.13-.1q-.3-.1-.3-.34t.34-.36a1.12,1.12,0,0,0,.24-.12q.17-.13.17-1.31V540Q991.7,539.05,991.68,538.61Z" transform="translate(-916.63 -536.76)"/><path class="cls-1" d="M997.85,544.82a4.09,4.09,0,0,1-1-.07.28.28,0,0,1-.2-.29q0-.25.35-.38a1.13,1.13,0,0,0,.24-.12,9.79,9.79,0,0,0,.22-3.15,12.45,12.45,0,0,0-.16-3l-.35-.2q-.3-.17-.3-.35a.29.29,0,0,1,.25-.29,5.64,5.64,0,0,1,1.2-.08h3.39a4.23,4.23,0,0,0,.83-.12.26.26,0,0,1,.24.13,2.36,2.36,0,0,1,.32,1.23q0,.52-.35.51-.19,0-.42-.38L1002,538a1.12,1.12,0,0,0-1-.35h-.76q-1,0-1.18.25a3.58,3.58,0,0,0-.18,1.53v.45a.75.75,0,0,0,0,.33s.1.07.21.07h1a1.12,1.12,0,0,0,.62-.13.66.66,0,0,0,.23-.47l0-.13q.08-.55.36-.55t.33.3a6.5,6.5,0,0,1,.09,1.37,6.3,6.3,0,0,1-.09,1.35q-.08.3-.33.3t-.36-.55s0-.08,0-.13a.67.67,0,0,0-.23-.47,1.11,1.11,0,0,0-.62-.13h-1a.21.21,0,0,0-.21.09,1.19,1.19,0,0,0-.05.45v.52a5.6,5.6,0,0,0,.12,1.57q.14.33,1.24.33h.72a2.06,2.06,0,0,0,.88-.15,1.3,1.3,0,0,0,.53-.55,3.31,3.31,0,0,0,.17-.37q.16-.41.36-.41t.3.51a4.24,4.24,0,0,1-.32,1.5q-.16.41-.38.41l-.14,0a2.71,2.71,0,0,0-.73-.1Z" transform="translate(-916.63 -536.76)"/></svg>